<?xml version="1.0" encoding="utf-8"?>
<!-- Generator: Adobe Illustrator 25.0.0, SVG Export Plug-In . SVG Version: 6.00 Build 0)  -->
<svg version="1.1" id="Layer_1" xmlns="http://www.w3.org/2000/svg" xmlns:xlink="http://www.w3.org/1999/xlink" x="0px" y="0px"
	 viewBox="0 0 1435 106" style="enable-background:new 0 0 1435 106;" xml:space="preserve">
<style type="text/css">
	.st0{fill:#E81F2D;}
	.st1{fill:#E4E4E4;}
</style>
<g>
	<polygon class="st0" points="174,100 39,100 39,38 191,38 191,6 0,6 0,106 174,106 	"/>
	<path class="st1" d="M1297.9,35.6c51.6,0,86.9,28.2,92.5,70.4h41.1c-5.8-64.3-57.8-106.1-133.6-106.1S1170.1,41.7,1164.4,106h41.1
		C1211,63.7,1246.3,35.6,1297.9,35.6z"/>
	<rect x="808" y="6" class="st1" width="39" height="100"/>
	<path class="st1" d="M939,39h92.1c29.2,0,48.4,16.2,48.4,40.9c0,11.2-5.8,20.3-15.9,26.1h50.2c3.6-7.7,5.5-16.3,5.5-25.6
		c0-44.7-35.4-74.4-88.2-74.4H900v100h39V39z"/>
	<polygon class="st1" points="551.1,6 504.3,6 555.5,106 601.4,106 	"/>
	<polygon class="st1" points="280.4,62.7 320.1,106 371.9,106 280.7,6 243,6 243,106 280.8,106 	"/>
	<rect x="435" y="6" class="st1" width="39" height="100"/>
	<polygon class="st1" points="778.2,6 733.8,6 683.9,106 726.3,106 	"/>
</g>
</svg>
