<svg width="206" height="61" viewBox="0 0 206 61" fill="none" xmlns="http://www.w3.org/2000/svg">
<g clip-path="url(#clip0)">
<path d="M100.788 22.3293H85.6515V18.2128H96.9263V14.3457H85.6515V10.2291H100.788V6.36206H81.4156V26.1964H100.788V22.3293Z" fill="white"/>
<path d="M135.859 26.1964H141.901L149.937 6.61155L150.061 6.36206H145.576L139.036 22.3293H138.849L132.37 6.4868L132.308 6.36206H127.761L135.859 26.0717V26.1964Z" fill="white"/>
<path d="M157.287 6.36206H153.051V26.134H157.287V6.36206Z" fill="white"/>
<path d="M177.968 18.8364C177.844 18.6493 177.657 18.3998 177.47 18.0879C180.46 17.6513 182.391 15.4059 182.391 12.3497C182.391 8.73208 179.962 6.36194 176.411 6.36194H162.271V26.1963H166.506V18.2127H172.86L177.719 26.1339L177.781 26.1963H182.578L177.968 18.8364ZM166.444 10.229H176.411C177.47 10.229 178.217 10.9151 178.217 12.0378V12.5992C178.217 13.6595 177.532 14.408 176.411 14.408H166.444V10.229Z" fill="white"/>
<path d="M195.597 5.98767C189.617 5.98767 185.319 10.2914 185.319 16.2791C185.319 22.2668 189.617 26.5705 195.597 26.5705C201.577 26.5705 205.875 22.2668 205.875 16.2791C205.875 10.3537 201.577 5.98767 195.597 5.98767ZM195.597 22.5163C192.171 22.5163 189.741 19.8967 189.741 16.2791C189.741 12.6615 192.233 10.0419 195.597 10.0419C198.961 10.0419 201.452 12.6615 201.452 16.2791C201.452 19.8967 199.023 22.5163 195.597 22.5163Z" fill="white"/>
<path d="M91.1955 38.4836C93.9986 38.4836 96.1788 40.2924 96.864 43.0368V43.1616H101.349L101.287 42.9744C100.477 37.8599 96.428 34.4918 91.1332 34.4918C85.1532 34.4918 80.855 38.7955 80.855 44.7832C80.855 50.771 85.1532 55.0746 91.1332 55.0746C96.428 55.0746 100.477 51.6442 101.287 46.592L101.349 46.4049H96.864V46.5296C96.1788 49.274 93.9986 51.0828 91.1955 51.0828C87.7694 51.0828 85.34 48.4632 85.34 44.8456C85.34 41.1033 87.7694 38.4836 91.1955 38.4836Z" fill="white"/>
<path d="M120.846 42.7872H109.509V34.8036H105.273V54.6379H109.509V46.6543H120.846V54.6379H125.082V34.8036H120.846V42.7872Z" fill="white"/>
<path d="M130.128 54.6379H149.501V50.7709H134.364V46.6543H145.639V42.7872H134.364V38.6707H149.501V34.8036H130.128V54.6379Z" fill="white"/>
<path d="M162.333 38.4836C165.136 38.4836 167.316 40.2924 168.001 43.0368V43.1616H172.486V42.9744C171.677 37.8599 167.628 34.4918 162.333 34.4918C156.353 34.4918 152.055 38.7955 152.055 44.7832C152.055 50.771 156.353 55.0746 162.333 55.0746C167.628 55.0746 171.677 51.6442 172.486 46.592V46.4049H168.001V46.5296C167.316 49.274 165.136 51.0828 162.333 51.0828C158.969 51.0828 156.477 48.4632 156.477 44.8456C156.477 41.1033 158.907 38.4836 162.333 38.4836Z" fill="white"/>
<path d="M190.863 34.8036L180.647 43.9723V34.8036H176.411V54.6379H180.647V49.3987L184.633 45.8435L191.548 54.5756L191.61 54.6379H196.78L187.623 43.1615L196.905 34.8036H190.863Z" fill="white"/>
<path d="M10.6519 37.049L17.6286 32.0593C18.7499 31.3732 20.058 31.3732 21.1793 32.0593L28.156 37.049C32.8902 39.9805 38.8079 36.3006 38.8079 30.4999C38.8079 24.6993 32.8902 21.0194 28.156 23.9509L21.1793 28.9406C20.058 29.6267 18.7499 29.6267 17.6286 28.9406L10.6519 23.9509C5.91774 21.0194 0 24.6993 0 30.4999C0 36.3006 5.91774 39.9805 10.6519 37.049Z" fill="#E81F2D"/>
<path d="M10.6519 14.0952L17.6286 9.10542C18.7499 8.41933 20.058 8.41933 21.1793 9.10542L26.9724 13.222C28.156 14.3447 29.7133 14.9684 31.3329 15.0932H31.3952C31.4575 15.0932 31.582 15.0932 31.6443 15.0932C31.7066 15.0932 31.8312 15.0932 31.8935 15.0932H31.9558C33.5754 15.0308 35.0704 14.3447 36.3162 13.222L42.1094 9.10542C43.2306 8.41933 44.5388 8.41933 45.66 9.10542L52.6367 14.0952C57.3709 17.0267 63.2887 13.3467 63.2887 7.54612C63.2264 1.7455 57.3086 -1.87209 52.5744 0.997035L45.5977 5.98681C44.4765 6.6729 43.1683 6.6729 42.0471 5.98681L36.3162 1.87025C35.1327 0.747546 33.5754 0.123825 31.9558 -0.000919812H31.8935C31.8312 -0.000919812 31.7066 -0.000919812 31.6443 -0.000919812C31.582 -0.000919812 31.4575 -0.000919812 31.3952 -0.000919812H31.3329C29.7133 0.0614524 28.2183 0.747546 26.9724 1.87025L21.1793 5.98681C20.058 6.6729 18.7499 6.6729 17.6286 5.98681L10.6519 0.997035C5.91774 -1.87209 0 1.7455 0 7.54612C0 13.4091 5.91774 17.0267 10.6519 14.0952Z" fill="#E81F2D"/>
<path d="M52.5744 46.9038L45.5977 51.8935C44.4765 52.5796 43.1683 52.5796 42.0471 51.8935L36.2539 47.777C35.0704 46.6543 33.5131 46.0306 31.8935 45.9058H31.8312C31.7689 45.9058 31.6443 45.9058 31.582 45.9058C31.5197 45.9058 31.3952 45.9058 31.3329 45.9058H31.2706C29.651 45.9682 28.156 46.6543 26.9101 47.777L21.117 51.8935C19.9957 52.5796 18.6876 52.5796 17.5663 51.8935L10.5896 46.9038C5.91774 43.9723 0 47.5899 0 53.4529C0 59.2535 5.91774 62.9334 10.6519 60.0019L17.6286 55.0122C18.7499 54.3261 20.058 54.3261 21.1793 55.0122L26.9724 59.1287C28.156 60.2514 29.7133 60.8751 31.3329 60.9999H31.3952C31.4575 60.9999 31.582 60.9999 31.6443 60.9999C31.7066 60.9999 31.8312 60.9999 31.8935 60.9999H31.9558C33.5754 60.9375 35.0704 60.2514 36.3162 59.1287L42.1094 55.0122C43.2306 54.3261 44.5388 54.3261 45.66 55.0122L52.6367 60.0019C57.3709 62.9334 63.2887 59.2535 63.2887 53.4529C63.2264 47.5899 57.3086 43.9723 52.5744 46.9038Z" fill="#E81F2D"/>
</g>
<path d="M121.033 26.1959H124.771V6.36157H120.535V19.5221L108.824 6.42394L108.762 6.36157H105.024V26.1959H109.198V13.0354L120.971 26.1336L121.033 26.1959Z" fill="white"/>
<defs>
<clipPath id="clip0">
<rect width="205.875" height="61" fill="white"/>
</clipPath>
</defs>
</svg>
