<svg width="162" height="48" viewBox="0 0 162 48" fill="none" xmlns="http://www.w3.org/2000/svg">
<g clip-path="url(#clip0)">
<path d="M79.3091 17.5705H67.3981V14.3313H76.2701V11.2883H67.3981V8.04905H79.3091V5.0061H64.0649V20.6135H79.3091V17.5705Z" fill="#272727"/>
<path d="M106.905 20.6135H111.66L117.983 5.20242L118.081 5.0061H114.552L109.405 17.5705H109.258L104.161 5.10426L104.112 5.0061H100.533L106.905 20.5153V20.6135Z" fill="#272727"/>
<path d="M123.767 5.0061H120.434V20.5644H123.767V5.0061Z" fill="#272727"/>
<path d="M140.041 14.8221C139.943 14.6748 139.796 14.4785 139.649 14.2331C142.001 13.8895 143.521 12.1227 143.521 9.71776C143.521 6.87113 141.609 5.0061 138.815 5.0061H127.689V20.6135H131.022V14.3313H136.021L139.845 20.5644L139.894 20.6135H143.668L140.041 14.8221ZM130.973 8.04905H138.815C139.649 8.04905 140.237 8.58893 140.237 9.47236V9.91408C140.237 10.7484 139.698 11.3374 138.815 11.3374H130.973V8.04905Z" fill="#272727"/>
<path d="M153.912 4.71167C149.207 4.71167 145.825 8.09817 145.825 12.8098C145.825 17.5215 149.207 20.908 153.912 20.908C158.618 20.908 162 17.5215 162 12.8098C162 8.14725 158.618 4.71167 153.912 4.71167ZM153.912 17.7178C151.217 17.7178 149.305 15.6565 149.305 12.8098C149.305 9.9632 151.266 7.90185 153.912 7.90185C156.559 7.90185 158.52 9.9632 158.52 12.8098C158.52 15.6565 156.608 17.7178 153.912 17.7178Z" fill="#272727"/>
<path d="M71.7607 30.2822C73.9664 30.2822 75.682 31.7055 76.2212 33.865V33.9632H79.7504L79.7014 33.816C79.0641 29.7914 75.8781 27.1411 71.7116 27.1411C67.0061 27.1411 63.6239 30.5276 63.6239 35.2393C63.6239 39.9509 67.0061 43.3374 71.7116 43.3374C75.8781 43.3374 79.0641 40.638 79.7014 36.6626L79.7504 36.5153H76.2212V36.6135C75.682 38.773 73.9664 40.1963 71.7607 40.1963C69.0647 40.1963 67.1531 38.135 67.1531 35.2884C67.1531 32.3436 69.0647 30.2822 71.7607 30.2822Z" fill="#272727"/>
<path d="M95.0925 33.6687H86.1715V27.3865H82.8384V42.9938H86.1715V36.7116H95.0925V42.9938H98.4257V27.3865H95.0925V33.6687Z" fill="#272727"/>
<path d="M102.396 42.9938H117.64V39.9509H105.729V36.7116H114.601V33.6687H105.729V30.4294H117.64V27.3865H102.396V42.9938Z" fill="#272727"/>
<path d="M127.738 30.2822C129.943 30.2822 131.659 31.7055 132.198 33.865V33.9632H135.727V33.816C135.09 29.7914 131.904 27.1411 127.738 27.1411C123.032 27.1411 119.65 30.5276 119.65 35.2393C119.65 39.9509 123.032 43.3374 127.738 43.3374C131.904 43.3374 135.09 40.638 135.727 36.6626V36.5153H132.198V36.6135C131.659 38.773 129.943 40.1963 127.738 40.1963C125.091 40.1963 123.13 38.135 123.13 35.2884C123.13 32.3436 125.042 30.2822 127.738 30.2822Z" fill="#272727"/>
<path d="M150.187 27.3865L142.149 34.6012V27.3865H138.815V42.9938H142.149V38.8711L145.286 36.0736L150.726 42.9448L150.775 42.9938H154.844L147.638 33.9632L154.942 27.3865H150.187Z" fill="#272727"/>
<path d="M8.38209 29.1531L13.872 25.2268C14.7543 24.6869 15.7836 24.6869 16.6659 25.2268L22.1558 29.1531C25.881 31.4599 30.5376 28.5642 30.5376 23.9998C30.5376 19.4354 25.881 16.5397 22.1558 18.8464L16.6659 22.7728C15.7836 23.3127 14.7543 23.3127 13.872 22.7728L8.38209 18.8464C4.65683 16.5397 0.000244141 19.4354 0.000244141 23.9998C0.000244141 28.5642 4.65683 31.4599 8.38209 29.1531Z" fill="#E81F2D"/>
<path d="M8.38209 11.0912L13.872 7.16482C14.7543 6.62495 15.7836 6.62495 16.6659 7.16482L21.2244 10.4041C22.1558 11.2875 23.3812 11.7783 24.6556 11.8765H24.7046C24.7536 11.8765 24.8517 11.8765 24.9007 11.8765C24.9497 11.8765 25.0477 11.8765 25.0968 11.8765H25.1458C26.4202 11.8274 27.5966 11.2875 28.5769 10.4041L33.1355 7.16482C34.0178 6.62495 35.0471 6.62495 35.9294 7.16482L41.4193 11.0912C45.1446 13.398 49.8012 10.5022 49.8012 5.93783C49.7521 1.37341 45.0956 -1.47321 41.3703 0.784456L35.8804 4.71084C34.9981 5.25071 33.9688 5.25071 33.0865 4.71084L28.5769 1.47157C27.6456 0.588137 26.4202 0.0973397 25.1458 -0.000819842H25.0968C25.0477 -0.000819842 24.9497 -0.000819842 24.9007 -0.000819842C24.8517 -0.000819842 24.7536 -0.000819842 24.7046 -0.000819842H24.6556C23.3812 0.0482599 22.2048 0.588137 21.2244 1.47157L16.6659 4.71084C15.7836 5.25071 14.7543 5.25071 13.872 4.71084L8.38209 0.784456C4.65683 -1.47321 0.000244141 1.37341 0.000244141 5.93783C0.000244141 10.5513 4.65683 13.398 8.38209 11.0912Z" fill="#E81F2D"/>
<path d="M41.3703 36.9079L35.8804 40.8343C34.9981 41.3741 33.9688 41.3741 33.0865 40.8343L28.5279 37.595C27.5966 36.7116 26.3712 36.2208 25.0968 36.1226H25.0477C24.9987 36.1226 24.9007 36.1226 24.8517 36.1226C24.8027 36.1226 24.7046 36.1226 24.6556 36.1226H24.6066C23.3322 36.1717 22.1558 36.7116 21.1754 37.595L16.6169 40.8343C15.7346 41.3741 14.7052 41.3741 13.8229 40.8343L8.33307 36.9079C4.65683 34.6011 0.000244141 37.4478 0.000244141 42.0613C0.000244141 46.6257 4.65683 49.5214 8.38209 47.2146L13.872 43.2882C14.7543 42.7484 15.7836 42.7484 16.6659 43.2882L21.2244 46.5275C22.1558 47.411 23.3812 47.9017 24.6556 47.9999H24.7046C24.7536 47.9999 24.8517 47.9999 24.9007 47.9999C24.9497 47.9999 25.0477 47.9999 25.0968 47.9999H25.1458C26.4202 47.9508 27.5966 47.411 28.5769 46.5275L33.1355 43.2882C34.0178 42.7484 35.0471 42.7484 35.9294 43.2882L41.4193 47.2146C45.1446 49.5214 49.8012 46.6257 49.8012 42.0613C49.7521 37.4478 45.0956 34.6011 41.3703 36.9079Z" fill="#E81F2D"/>
</g>
<path d="M95.2396 20.6135H98.1806V5.0061H94.8475V15.3619L85.6323 5.05518L85.5833 5.0061H82.6423V20.6135H85.9264V10.2576L95.1906 20.5644L95.2396 20.6135Z" fill="#272727"/>
<defs>
<clipPath id="clip0">
<rect width="162" height="48" fill="white" transform="translate(0.000244141)"/>
</clipPath>
</defs>
</svg>
